<svg version="1.1" xmlns="http://www.w3.org/2000/svg" xmlns:xlink="http://www.w3.org/1999/xlink" width="69.85699" height="66.6511" viewBox="0,0,69.85699,66.6511"><g transform="translate(-205.0715,-146.67445)"><g data-paper-data="{&quot;isPaintingLayer&quot;:true}" fill="#ffbf00" fill-rule="evenodd" stroke="none" stroke-width="1" stroke-linecap="butt" stroke-linejoin="miter" stroke-miterlimit="10" stroke-dasharray="" stroke-dashoffset="0" style="mix-blend-mode: normal"><path d="M238.98618,203.49844l-18.20946,9.56975c-1.59753,0.84507 -3.46905,-0.51325 -3.16422,-2.296l3.47678,-20.27772c0.12345,-0.70615 -0.11187,-1.42773 -0.62512,-1.92935l-14.73273,-14.35845c-1.29265,-1.26182 -0.57876,-3.45747 1.20778,-3.71988l20.35881,-2.9558c0.71,-0.10419 1.32354,-0.54793 1.63999,-1.19236l9.10665,-18.44867c0.79876,-1.62068 3.11013,-1.62068 3.91279,0l9.10281,18.44867c0.3164,0.64438 0.92995,1.08817 1.63999,1.19236l20.35881,2.9558c1.78659,0.26236 2.50432,2.45807 1.20778,3.71988l-14.72884,14.35845c-0.51704,0.50167 -0.74862,1.2232 -0.62896,1.92935l3.47673,20.27772c0.30872,1.78275 -1.5628,3.14107 -3.16033,2.296l-18.20946,-9.56975c-0.6367,-0.33571 -1.393,-0.33571 -2.02969,0z"/></g></g></svg>