<svg version="1.1" xmlns="http://www.w3.org/2000/svg" xmlns:xlink="http://www.w3.org/1999/xlink" width="47.16818" height="60.37739" viewBox="0,0,47.16818,60.37739"><g transform="translate(-216.41591,-149.8113)"><g data-paper-data="{&quot;isPaintingLayer&quot;:true}" fill="#4c97ff" fill-rule="evenodd" stroke="#4c97ff" stroke-width="0.5" stroke-linecap="round" stroke-linejoin="round" stroke-miterlimit="10" stroke-dasharray="" stroke-dashoffset="0" style="mix-blend-mode: normal"><path d="M231.05933,174.33151c-2.97396,-2.49679 -4.84648,-6.27864 -4.84648,-10.46432c0,-7.63731 6.16857,-13.80588 13.80583,-13.80588c7.60054,0 13.76915,6.16857 13.76915,13.80588c0,4.22255 -1.83589,7.96773 -4.84692,10.46462c3.78186,1.79917 7.04966,4.66315 9.50973,8.26138c2.79054,4.11238 4.55298,9.21613 4.81005,14.76052c0.0734,0.51405 0.0734,1.02809 0.0734,1.54214c0,14.7238 -46.66818,14.7238 -46.66818,0c0,-11.05202 5.91154,-20.52517 14.39332,-24.56415z"/></g></g></svg>