<svg version="1.1" xmlns="http://www.w3.org/2000/svg" xmlns:xlink="http://www.w3.org/1999/xlink" width="59.87738" height="59.87738" viewBox="0,0,59.87738,59.87738"><g transform="translate(-210.06131,-150.06131)"><g data-paper-data="{&quot;isPaintingLayer&quot;:true}" fill="#0fbd8c" fill-rule="evenodd" stroke="none" stroke-width="1" stroke-linecap="butt" stroke-linejoin="miter" stroke-miterlimit="10" stroke-dasharray="" stroke-dashoffset="0" style="mix-blend-mode: normal"><path d="M269.93869,185.0046c0,2.74762 -2.20878,4.97496 -4.98454,4.97496h-9.9848v-17.46339c0,-4.13413 -3.36471,-7.48552 -7.48552,-7.48552h-17.46339v-9.9848c0,-2.75291 2.26052,-4.98454 4.97496,-4.98454h29.96833c2.74762,0 4.97496,2.26052 4.97496,4.97496zM249.97956,204.96373c0,2.74762 -2.26052,4.97496 -4.97496,4.97496h-29.96833c-2.74762,0 -4.97496,-2.26052 -4.97496,-4.97496v-29.96833c0,-2.74762 2.26052,-4.97496 4.97496,-4.97496h29.96833c2.74762,0 4.97496,2.26052 4.97496,4.97496z"/></g></g></svg>